<svg width="16" height="17" viewBox="0 0 16 17" fill="none" xmlns="http://www.w3.org/2000/svg">
<g id="ep:arrow-down">
<path id="Vector" d="M12.9981 5.82602L8.00008 10.698L3.00208 5.82602C2.91278 5.7388 2.7929 5.68996 2.66808 5.68996C2.54325 5.68996 2.42337 5.7388 2.33408 5.82602C2.29084 5.86838 2.25649 5.91895 2.23304 5.97475C2.20959 6.03056 2.19751 6.09048 2.19751 6.15102C2.19751 6.21155 2.20959 6.27147 2.23304 6.32728C2.25649 6.38309 2.29084 6.43365 2.33408 6.47602L7.65108 11.66C7.74445 11.751 7.86968 11.802 8.00008 11.802C8.13047 11.802 8.2557 11.751 8.34908 11.66L13.6661 6.47702C13.7096 6.43462 13.7442 6.38393 13.7679 6.32794C13.7915 6.27195 13.8037 6.21179 13.8037 6.15102C13.8037 6.09024 13.7915 6.03009 13.7679 5.97409C13.7442 5.9181 13.7096 5.86741 13.6661 5.82502C13.5768 5.7378 13.4569 5.68896 13.3321 5.68896C13.2072 5.68896 13.0874 5.7378 12.9981 5.82502V5.82602Z" fill="#8FA2A2"/>
</g>
</svg>
