<svg width="25" height="25" viewBox="0 0 25 25" fill="none" xmlns="http://www.w3.org/2000/svg">
<g id="ion:build-outline">
<path id="Vector" d="M18.9626 9.40611C18.6807 9.6862 18.2995 9.84341 17.9021 9.84341C17.5047 9.84341 17.1234 9.6862 16.8415 9.40611L15.5961 8.16064C15.3157 7.87878 15.1584 7.49741 15.1584 7.09986C15.1584 6.70232 15.3157 6.32094 15.5961 6.03908L18.4151 3.21861C18.4207 3.21325 18.4249 3.20658 18.4273 3.19922C18.4296 3.19185 18.4301 3.18401 18.4287 3.1764C18.4274 3.16879 18.4241 3.16164 18.4193 3.15559C18.4144 3.14954 18.4082 3.14478 18.4011 3.14174C16.5814 2.36174 14.2222 2.75924 12.724 4.24658C11.2906 5.66924 11.209 7.80908 11.734 9.67658C11.8086 9.94203 11.8085 10.2229 11.7335 10.4883C11.6586 10.7536 11.5118 10.9931 11.3094 11.1803L3.49998 18.3124C3.26957 18.5166 3.08339 18.7659 2.95287 19.0448C2.82234 19.3237 2.75025 19.6263 2.74101 19.9341C2.73177 20.2419 2.78558 20.5483 2.89914 20.8346C3.01269 21.1208 3.1836 21.3808 3.40133 21.5985C3.61907 21.8162 3.87905 21.9871 4.16527 22.1007C4.45149 22.2143 4.75792 22.2681 5.06571 22.2588C5.3735 22.2496 5.67615 22.1775 5.95505 22.047C6.23394 21.9165 6.4832 21.7303 6.68748 21.4999L13.8997 13.6717C14.0845 13.4727 14.32 13.3277 14.5809 13.2523C14.8419 13.177 15.1184 13.174 15.3809 13.2438C17.2344 13.7402 19.3437 13.6469 20.7584 12.2505C22.2814 10.7505 22.61 8.09924 21.8717 6.58189C21.8684 6.57526 21.8635 6.56952 21.8575 6.56512C21.8516 6.56073 21.8446 6.55782 21.8373 6.55663C21.83 6.55544 21.8225 6.55601 21.8154 6.55828C21.8084 6.56055 21.802 6.56447 21.7967 6.56971L18.9626 9.40611Z" stroke="white" stroke-width="1.5" stroke-miterlimit="10" stroke-linecap="round"/>
<path id="Vector_2" d="M5 20.75C5.41421 20.75 5.75 20.4142 5.75 20C5.75 19.5858 5.41421 19.25 5 19.25C4.58579 19.25 4.25 19.5858 4.25 20C4.25 20.4142 4.58579 20.75 5 20.75Z" fill="white"/>
</g>
</svg>
