<svg width="20" height="20" viewBox="0 0 20 20" fill="none" xmlns="http://www.w3.org/2000/svg">
<g id="ion:business-outline">
<path id="Vector" d="M6.875 16.25V18.75M3.125 1.25H10.625C10.9565 1.25 11.2745 1.3817 11.5089 1.61612C11.7433 1.85054 11.875 2.16848 11.875 2.5V18.5938C11.875 18.6352 11.8585 18.6749 11.8292 18.7042C11.7999 18.7335 11.7602 18.75 11.7188 18.75H1.875V2.5C1.875 2.16848 2.0067 1.85054 2.24112 1.61612C2.47554 1.3817 2.79348 1.25 3.125 1.25ZM12.5 7.5H16.875C17.2065 7.5 17.5245 7.6317 17.7589 7.86612C17.9933 8.10054 18.125 8.41848 18.125 8.75V18.75H11.875V8.125C11.875 7.95924 11.9408 7.80027 12.0581 7.68306C12.1753 7.56585 12.3342 7.5 12.5 7.5Z" stroke="white" stroke-width="1.25" stroke-linecap="round" stroke-linejoin="round"/>
<path id="Vector_2" d="M3.8313 16.8697C3.70185 16.8867 3.57036 16.8626 3.45527 16.801C3.34018 16.7394 3.24727 16.6433 3.18958 16.5262C3.13189 16.4091 3.11232 16.2769 3.13361 16.1481C3.15491 16.0193 3.21599 15.9004 3.3083 15.8081C3.40061 15.7158 3.51951 15.6547 3.6483 15.6334C3.7771 15.6121 3.90933 15.6316 4.02644 15.6893C4.14354 15.747 4.23965 15.8399 4.30126 15.955C4.36287 16.0701 4.3869 16.2016 4.36997 16.3311C4.3521 16.4677 4.2896 16.5945 4.19219 16.6919C4.09477 16.7894 3.9679 16.8519 3.8313 16.8697ZM3.8313 13.7447C3.70185 13.7617 3.57036 13.7376 3.45527 13.676C3.34018 13.6144 3.24727 13.5183 3.18958 13.4012C3.13189 13.2841 3.11232 13.1519 3.13361 13.0231C3.15491 12.8943 3.21599 12.7754 3.3083 12.6831C3.40061 12.5908 3.51951 12.5297 3.6483 12.5084C3.7771 12.4871 3.90933 12.5066 4.02644 12.5643C4.14354 12.622 4.23965 12.7149 4.30126 12.83C4.36287 12.9451 4.3869 13.0766 4.36997 13.2061C4.3521 13.3427 4.2896 13.4695 4.19219 13.5669C4.09477 13.6644 3.9679 13.7269 3.8313 13.7447ZM3.8313 10.6197C3.70185 10.6367 3.57036 10.6126 3.45527 10.551C3.34018 10.4894 3.24727 10.3933 3.18958 10.2762C3.13189 10.1591 3.11232 10.0269 3.13361 9.89806C3.15491 9.76926 3.21599 9.65037 3.3083 9.55806C3.40061 9.46575 3.51951 9.40466 3.6483 9.38337C3.7771 9.36208 3.90933 9.38165 4.02644 9.43934C4.14354 9.49703 4.23965 9.58993 4.30126 9.70502C4.36287 9.82012 4.3869 9.95161 4.36997 10.0811C4.3521 10.2177 4.2896 10.3445 4.19219 10.4419C4.09477 10.5394 3.9679 10.6019 3.8313 10.6197ZM3.8313 7.49472C3.70185 7.51165 3.57036 7.48762 3.45527 7.42601C3.34018 7.3644 3.24727 7.2683 3.18958 7.15119C3.13189 7.03409 3.11232 6.90186 3.13361 6.77306C3.15491 6.64426 3.21599 6.52537 3.3083 6.43306C3.40061 6.34075 3.51951 6.27966 3.6483 6.25837C3.7771 6.23708 3.90933 6.25665 4.02644 6.31434C4.14354 6.37203 4.23965 6.46494 4.30126 6.58003C4.36287 6.69512 4.3869 6.82661 4.36997 6.95605C4.3521 7.09265 4.2896 7.21953 4.19219 7.31694C4.09477 7.41436 3.9679 7.47686 3.8313 7.49472ZM3.8313 4.36972C3.70185 4.38665 3.57036 4.36262 3.45527 4.30101C3.34018 4.2394 3.24727 4.1433 3.18958 4.02619C3.13189 3.90909 3.11232 3.77686 3.13361 3.64806C3.15491 3.51926 3.21599 3.40037 3.3083 3.30806C3.40061 3.21575 3.51951 3.15466 3.6483 3.13337C3.7771 3.11208 3.90933 3.13165 4.02644 3.18934C4.14354 3.24703 4.23965 3.33993 4.30126 3.45503C4.36287 3.57012 4.3869 3.70161 4.36997 3.83105C4.3521 3.96765 4.2896 4.09453 4.19219 4.19194C4.09477 4.28936 3.9679 4.35186 3.8313 4.36972ZM6.9563 13.7447C6.82685 13.7617 6.69536 13.7376 6.58027 13.676C6.46518 13.6144 6.37227 13.5183 6.31458 13.4012C6.25689 13.2841 6.23732 13.1519 6.25861 13.0231C6.27991 12.8943 6.34099 12.7754 6.4333 12.6831C6.52561 12.5908 6.64451 12.5297 6.7733 12.5084C6.9021 12.4871 7.03433 12.5066 7.15144 12.5643C7.26854 12.622 7.36465 12.7149 7.42626 12.83C7.48787 12.9451 7.5119 13.0766 7.49497 13.2061C7.4771 13.3427 7.4146 13.4695 7.31719 13.5669C7.21977 13.6644 7.0929 13.7269 6.9563 13.7447ZM6.9563 10.6197C6.82685 10.6367 6.69536 10.6126 6.58027 10.551C6.46518 10.4894 6.37227 10.3933 6.31458 10.2762C6.25689 10.1591 6.23732 10.0269 6.25861 9.89806C6.27991 9.76926 6.34099 9.65037 6.4333 9.55806C6.52561 9.46575 6.64451 9.40466 6.7733 9.38337C6.9021 9.36208 7.03433 9.38165 7.15144 9.43934C7.26854 9.49703 7.36465 9.58993 7.42626 9.70502C7.48787 9.82012 7.5119 9.95161 7.49497 10.0811C7.4771 10.2177 7.4146 10.3445 7.31719 10.4419C7.21977 10.5394 7.0929 10.6019 6.9563 10.6197ZM6.9563 7.49472C6.82685 7.51165 6.69536 7.48762 6.58027 7.42601C6.46518 7.3644 6.37227 7.2683 6.31458 7.15119C6.25689 7.03409 6.23732 6.90186 6.25861 6.77306C6.27991 6.64426 6.34099 6.52537 6.4333 6.43306C6.52561 6.34075 6.64451 6.27966 6.7733 6.25837C6.9021 6.23708 7.03433 6.25665 7.15144 6.31434C7.26854 6.37203 7.36465 6.46494 7.42626 6.58003C7.48787 6.69512 7.5119 6.82661 7.49497 6.95605C7.4771 7.09265 7.4146 7.21953 7.31719 7.31694C7.21977 7.41436 7.0929 7.47686 6.9563 7.49472ZM6.9563 4.36972C6.82685 4.38665 6.69536 4.36262 6.58027 4.30101C6.46518 4.2394 6.37227 4.1433 6.31458 4.02619C6.25689 3.90909 6.23732 3.77686 6.25861 3.64806C6.27991 3.51926 6.34099 3.40037 6.4333 3.30806C6.52561 3.21575 6.64451 3.15466 6.7733 3.13337C6.9021 3.11208 7.03433 3.13165 7.15144 3.18934C7.26854 3.24703 7.36465 3.33993 7.42626 3.45503C7.48787 3.57012 7.5119 3.70161 7.49497 3.83105C7.4771 3.96765 7.4146 4.09453 7.31719 4.19194C7.21977 4.28936 7.0929 4.35186 6.9563 4.36972ZM10.0813 16.8697C9.95185 16.8867 9.82036 16.8626 9.70527 16.801C9.59018 16.7394 9.49727 16.6433 9.43958 16.5262C9.38189 16.4091 9.36232 16.2769 9.38361 16.1481C9.40491 16.0193 9.46599 15.9004 9.5583 15.8081C9.65061 15.7158 9.76951 15.6547 9.8983 15.6334C10.0271 15.6121 10.1593 15.6316 10.2764 15.6893C10.3935 15.747 10.4896 15.8399 10.5513 15.955C10.6129 16.0701 10.6369 16.2016 10.62 16.3311C10.6021 16.4677 10.5396 16.5945 10.4422 16.6919C10.3448 16.7894 10.2179 16.8519 10.0813 16.8697ZM10.0813 13.7447C9.95185 13.7617 9.82036 13.7376 9.70527 13.676C9.59018 13.6144 9.49727 13.5183 9.43958 13.4012C9.38189 13.2841 9.36232 13.1519 9.38361 13.0231C9.40491 12.8943 9.46599 12.7754 9.5583 12.6831C9.65061 12.5908 9.76951 12.5297 9.8983 12.5084C10.0271 12.4871 10.1593 12.5066 10.2764 12.5643C10.3935 12.622 10.4896 12.7149 10.5513 12.83C10.6129 12.9451 10.6369 13.0766 10.62 13.2061C10.6021 13.3427 10.5396 13.4695 10.4422 13.5669C10.3448 13.6644 10.2179 13.7269 10.0813 13.7447ZM10.0813 10.6197C9.95185 10.6367 9.82036 10.6126 9.70527 10.551C9.59018 10.4894 9.49727 10.3933 9.43958 10.2762C9.38189 10.1591 9.36232 10.0269 9.38361 9.89806C9.40491 9.76926 9.46599 9.65037 9.5583 9.55806C9.65061 9.46575 9.76951 9.40466 9.8983 9.38337C10.0271 9.36208 10.1593 9.38165 10.2764 9.43934C10.3935 9.49703 10.4896 9.58993 10.5513 9.70502C10.6129 9.82012 10.6369 9.95161 10.62 10.0811C10.6021 10.2177 10.5396 10.3445 10.4422 10.4419C10.3448 10.5394 10.2179 10.6019 10.0813 10.6197Z" fill="white"/>
<path id="Vector_3" d="M10.4428 7.31754C10.6861 7.07422 10.6851 6.67874 10.4406 6.43421C10.1961 6.18967 9.80057 6.18868 9.55726 6.432C9.31394 6.67531 9.31493 7.07079 9.55947 7.31533C9.804 7.55986 10.1995 7.56085 10.4428 7.31754Z" fill="white"/>
<path id="Vector_4" d="M10.0813 4.36972C9.95185 4.38665 9.82036 4.36262 9.70527 4.30101C9.59018 4.2394 9.49727 4.1433 9.43958 4.02619C9.38189 3.90909 9.36232 3.77686 9.38361 3.64806C9.40491 3.51926 9.46599 3.40037 9.5583 3.30806C9.65061 3.21575 9.76951 3.15466 9.8983 3.13337C10.0271 3.11208 10.1593 3.13165 10.2764 3.18934C10.3935 3.24703 10.4896 3.33993 10.5513 3.45503C10.6129 3.57012 10.6369 3.70161 10.62 3.83105C10.6021 3.96765 10.5396 4.09453 10.4422 4.19194C10.3448 4.28936 10.2179 4.35186 10.0813 4.36972ZM15.625 15.6248C15.5014 15.6248 15.3806 15.6615 15.2778 15.7301C15.175 15.7988 15.0949 15.8964 15.0476 16.0106C15.0003 16.1248 14.9879 16.2505 15.0121 16.3717C15.0362 16.493 15.0957 16.6043 15.1831 16.6917C15.2705 16.7792 15.3819 16.8387 15.5031 16.8628C15.6244 16.8869 15.75 16.8745 15.8642 16.8272C15.9784 16.7799 16.076 16.6998 16.1447 16.597C16.2134 16.4943 16.25 16.3734 16.25 16.2498C16.25 16.084 16.1842 15.9251 16.067 15.8079C15.9498 15.6906 15.7908 15.6248 15.625 15.6248ZM15.625 12.4998C15.5014 12.4998 15.3806 12.5365 15.2778 12.6051C15.175 12.6738 15.0949 12.7714 15.0476 12.8856C15.0003 12.9998 14.9879 13.1255 15.0121 13.2467C15.0362 13.368 15.0957 13.4793 15.1831 13.5667C15.2705 13.6542 15.3819 13.7137 15.5031 13.7378C15.6244 13.7619 15.75 13.7495 15.8642 13.7022C15.9784 13.6549 16.076 13.5748 16.1447 13.472C16.2134 13.3693 16.25 13.2484 16.25 13.1248C16.25 12.959 16.1842 12.8001 16.067 12.6829C15.9498 12.5656 15.7908 12.4998 15.625 12.4998ZM15.625 9.3748C15.5014 9.3748 15.3806 9.41146 15.2778 9.48013C15.175 9.54881 15.0949 9.64642 15.0476 9.76062C15.0003 9.87483 14.9879 10.0005 15.0121 10.1217C15.0362 10.243 15.0957 10.3543 15.1831 10.4417C15.2705 10.5292 15.3819 10.5887 15.5031 10.6128C15.6244 10.6369 15.75 10.6245 15.8642 10.5772C15.9784 10.5299 16.076 10.4498 16.1447 10.347C16.2134 10.2443 16.25 10.1234 16.25 9.9998C16.25 9.83404 16.1842 9.67507 16.067 9.55786C15.9498 9.44065 15.7908 9.3748 15.625 9.3748ZM13.125 15.6248C13.0014 15.6248 12.8806 15.6615 12.7778 15.7301C12.675 15.7988 12.5949 15.8964 12.5476 16.0106C12.5003 16.1248 12.4879 16.2505 12.5121 16.3717C12.5362 16.493 12.5957 16.6043 12.6831 16.6917C12.7705 16.7792 12.8819 16.8387 13.0031 16.8628C13.1244 16.8869 13.25 16.8745 13.3642 16.8272C13.4784 16.7799 13.576 16.6998 13.6447 16.597C13.7134 16.4943 13.75 16.3734 13.75 16.2498C13.75 16.084 13.6842 15.9251 13.567 15.8079C13.4498 15.6906 13.2908 15.6248 13.125 15.6248ZM13.125 12.4998C13.0014 12.4998 12.8806 12.5365 12.7778 12.6051C12.675 12.6738 12.5949 12.7714 12.5476 12.8856C12.5003 12.9998 12.4879 13.1255 12.5121 13.2467C12.5362 13.368 12.5957 13.4793 12.6831 13.5667C12.7705 13.6542 12.8819 13.7137 13.0031 13.7378C13.1244 13.7619 13.25 13.7495 13.3642 13.7022C13.4784 13.6549 13.576 13.5748 13.6447 13.472C13.7134 13.3693 13.75 13.2484 13.75 13.1248C13.75 12.959 13.6842 12.8001 13.567 12.6829C13.4498 12.5656 13.2908 12.4998 13.125 12.4998ZM13.125 9.3748C13.0014 9.3748 12.8806 9.41146 12.7778 9.48013C12.675 9.54881 12.5949 9.64642 12.5476 9.76062C12.5003 9.87483 12.4879 10.0005 12.5121 10.1217C12.5362 10.243 12.5957 10.3543 12.6831 10.4417C12.7705 10.5292 12.8819 10.5887 13.0031 10.6128C13.1244 10.6369 13.25 10.6245 13.3642 10.5772C13.4784 10.5299 13.576 10.4498 13.6447 10.347C13.7134 10.2443 13.75 10.1234 13.75 9.9998C13.75 9.83404 13.6842 9.67507 13.567 9.55786C13.4498 9.44065 13.2908 9.3748 13.125 9.3748Z" fill="white"/>
</g>
</svg>
