<svg width="25" height="25" viewBox="0 0 25 25" fill="none" xmlns="http://www.w3.org/2000/svg">
<g id="ion:car-sport-outline">
<path id="Vector" d="M22.6843 11.4969C22.3407 11.0408 21.0643 10.7267 20.5243 9.90594C19.9843 9.08516 19.5423 7.30766 18.1679 6.62469C16.7935 5.94172 14.1666 5.75 12.6666 5.75C11.1666 5.75 8.54163 5.9375 7.16538 6.62328C5.78913 7.30906 5.34897 9.08516 4.80897 9.90453C4.26897 10.7239 2.99257 11.0408 2.64897 11.4969C2.30538 11.953 2.06351 14.8363 2.21069 16.25C2.35788 17.6637 2.63257 18.5 2.63257 18.5H6.66382C7.32382 18.5 7.53851 18.252 8.88851 18.125C10.3698 17.9844 11.8229 17.9375 12.6666 17.9375C13.5104 17.9375 15.0104 17.9844 16.4907 18.125C17.8407 18.253 18.0624 18.5 18.7154 18.5H22.6998C22.6998 18.5 22.9744 17.6637 23.1216 16.25C23.2688 14.8363 23.026 11.953 22.6843 11.4969ZM19.4166 18.5H22.0416V19.25H19.4166V18.5ZM3.29163 18.5H5.91663V19.25H3.29163V18.5Z" stroke="white" stroke-width="1.5" stroke-linecap="round" stroke-linejoin="round"/>
<path id="Vector_2" d="M17.7512 14.9918C17.4741 14.6717 16.5713 14.4045 15.376 14.2254C14.1807 14.0464 13.7448 14 12.676 14C11.6072 14 11.1212 14.0768 9.97553 14.2254C8.8299 14.374 7.96975 14.6384 7.60084 14.9918C7.04725 15.5281 7.85819 16.13 8.49475 16.2031C9.11162 16.2734 10.3449 16.2476 12.6812 16.2476C15.0174 16.2476 16.2507 16.2734 16.8676 16.2031C17.5032 16.1257 18.256 15.5656 17.7512 14.9918ZM20.8965 11.8929C20.8938 11.8557 20.8775 11.8208 20.8507 11.7948C20.8239 11.7689 20.7885 11.7537 20.7512 11.7523C20.1976 11.7326 19.6355 11.772 18.6385 12.0659C18.1298 12.2144 17.6522 12.4536 17.2285 12.7718C17.1216 12.8553 17.1596 13.0807 17.2937 13.1047C18.1155 13.201 18.9422 13.2496 19.7696 13.25C20.266 13.25 20.7783 13.1093 20.8735 12.6668C20.922 12.4117 20.9298 12.1505 20.8965 11.8929ZM4.43678 11.8929C4.43941 11.8557 4.4557 11.8208 4.48252 11.7948C4.50934 11.7689 4.5448 11.7537 4.58209 11.7523C5.13569 11.7326 5.69772 11.772 6.69475 12.0659C7.20342 12.2144 7.68108 12.4536 8.10475 12.7718C8.21162 12.8553 8.17365 13.0807 8.03959 13.1047C7.21779 13.201 6.39109 13.2496 5.56366 13.25C5.06725 13.25 4.5549 13.1093 4.45975 12.6668C4.41123 12.4117 4.40348 12.1505 4.43678 11.8929Z" fill="white"/>
<path id="Vector_3" d="M20.9166 9.5H21.6666M3.66663 9.5H4.41663M4.32288 10.3906C4.32288 10.3906 6.49553 9.82812 12.6666 9.82812C18.8377 9.82812 21.0104 10.3906 21.0104 10.3906" stroke="white" stroke-width="1.5" stroke-linecap="round" stroke-linejoin="round"/>
</g>
</svg>
