<svg width="36" height="36" viewBox="0 0 36 36" fill="none" xmlns="http://www.w3.org/2000/svg">
<g id="ion:cash">
<path id="Vector" d="M31.5 28.125H4.5C4.20163 28.125 3.91548 28.0065 3.7045 27.7955C3.49353 27.5845 3.375 27.2984 3.375 27C3.375 26.7016 3.49353 26.4155 3.7045 26.2045C3.91548 25.9935 4.20163 25.875 4.5 25.875H31.5C31.7984 25.875 32.0845 25.9935 32.2955 26.2045C32.5065 26.4155 32.625 26.7016 32.625 27C32.625 27.2984 32.5065 27.5845 32.2955 27.7955C32.0845 28.0065 31.7984 28.125 31.5 28.125ZM29.25 31.5H6.75C6.45163 31.5 6.16548 31.3815 5.9545 31.1705C5.74353 30.9595 5.625 30.6734 5.625 30.375C5.625 30.0766 5.74353 29.7905 5.9545 29.5795C6.16548 29.3685 6.45163 29.25 6.75 29.25H29.25C29.5484 29.25 29.8345 29.3685 30.0455 29.5795C30.2565 29.7905 30.375 30.0766 30.375 30.375C30.375 30.6734 30.2565 30.9595 30.0455 31.1705C29.8345 31.3815 29.5484 31.5 29.25 31.5ZM2.25 19.125H1.125V22.5C1.125 23.0967 1.36205 23.669 1.78401 24.091C2.20597 24.5129 2.77826 24.75 3.375 24.75H6.75V23.625C6.7487 22.4319 6.27417 21.2881 5.43054 20.4445C4.58691 19.6008 3.44307 19.1263 2.25 19.125Z" fill="url(#paint0_linear_2_3901)"/>
<path id="Vector_2" d="M33.75 16.875H34.875V12.375H33.75C31.9604 12.373 30.2447 11.6611 28.9793 10.3957C27.7139 9.13028 27.002 7.41458 27 5.625V4.5H9V5.625C8.99795 7.41458 8.28614 9.13028 7.02071 10.3957C5.75528 11.6611 4.03958 12.373 2.25 12.375H1.125V16.875H2.25C4.03958 16.877 5.75528 17.5889 7.02071 18.8543C8.28614 20.1197 8.99795 21.8354 9 23.625V24.75H27V23.625C27.002 21.8354 27.7139 20.1197 28.9793 18.8543C30.2447 17.5889 31.9604 16.877 33.75 16.875ZM18 21.375C16.665 21.375 15.3599 20.9791 14.2499 20.2374C13.1399 19.4957 12.2747 18.4415 11.7638 17.2081C11.2529 15.9747 11.1192 14.6175 11.3797 13.3081C11.6402 11.9988 12.283 10.796 13.227 9.85203C14.171 8.90802 15.3738 8.26515 16.6831 8.0047C17.9925 7.74425 19.3497 7.87792 20.5831 8.38881C21.8165 8.8997 22.8707 9.76487 23.6124 10.8749C24.3541 11.9849 24.75 13.29 24.75 14.625C24.748 16.4146 24.0361 18.1303 22.7707 19.3957C21.5053 20.6611 19.7896 21.373 18 21.375Z" fill="url(#paint1_linear_2_3901)"/>
<path id="Vector_3" d="M18 19.125C20.4853 19.125 22.5 17.1103 22.5 14.625C22.5 12.1397 20.4853 10.125 18 10.125C15.5147 10.125 13.5 12.1397 13.5 14.625C13.5 17.1103 15.5147 19.125 18 19.125Z" fill="url(#paint2_linear_2_3901)"/>
<path id="Vector_4" d="M29.25 23.625V24.75H32.625C33.2217 24.75 33.794 24.5129 34.216 24.091C34.6379 23.669 34.875 23.0967 34.875 22.5V19.125H33.75C32.5569 19.1263 31.4131 19.6008 30.5695 20.4445C29.7258 21.2881 29.2513 22.4319 29.25 23.625ZM33.75 10.125H34.875V6.75C34.875 6.15326 34.6379 5.58097 34.216 5.15901C33.794 4.73705 33.2217 4.5 32.625 4.5H29.25V5.625C29.2513 6.81807 29.7258 7.96191 30.5695 8.80554C31.4131 9.64917 32.5569 10.1237 33.75 10.125ZM6.75 5.625V4.5H3.375C2.77826 4.5 2.20597 4.73705 1.78401 5.15901C1.36205 5.58097 1.125 6.15326 1.125 6.75V10.125H2.25C3.44307 10.1237 4.58691 9.64917 5.43054 8.80554C6.27417 7.96191 6.7487 6.81807 6.75 5.625Z" fill="url(#paint3_linear_2_3901)"/>
</g>
<defs>
<linearGradient id="paint0_linear_2_3901" x1="0.873256" y1="19.0268" x2="15.2362" y2="42.4241" gradientUnits="userSpaceOnUse">
<stop stop-color="#8BDFDA"/>
<stop offset="1" stop-color="#369C96"/>
</linearGradient>
<linearGradient id="paint1_linear_2_3901" x1="0.855274" y1="4.33929" x2="27.1577" y2="32.3937" gradientUnits="userSpaceOnUse">
<stop stop-color="#8BDFDA"/>
<stop offset="1" stop-color="#369C96"/>
</linearGradient>
<linearGradient id="paint2_linear_2_3901" x1="13.4281" y1="10.0536" x2="24.0651" y2="16.8609" gradientUnits="userSpaceOnUse">
<stop stop-color="#8BDFDA"/>
<stop offset="1" stop-color="#369C96"/>
</linearGradient>
<linearGradient id="paint3_linear_2_3901" x1="0.855274" y1="4.33929" x2="27.1577" y2="32.3937" gradientUnits="userSpaceOnUse">
<stop stop-color="#8BDFDA"/>
<stop offset="1" stop-color="#369C96"/>
</linearGradient>
</defs>
</svg>
