<svg width="25" height="25" viewBox="0 0 25 25" fill="none" xmlns="http://www.w3.org/2000/svg">
<g id="ph:charging-station">
<path id="Vector" d="M12.7873 12.0791C12.8561 12.1805 12.8991 12.2974 12.9123 12.4193C12.9255 12.5412 12.9087 12.6645 12.8632 12.7784L11.3632 16.5284C11.289 16.7132 11.1444 16.8609 10.9613 16.939C10.7782 17.0172 10.5715 17.0194 10.3868 16.9452C10.202 16.8709 10.0544 16.7264 9.9762 16.5433C9.89805 16.3601 9.89584 16.1535 9.97006 15.9688L11.0585 13.25H9.16663C9.04371 13.2502 8.92262 13.2202 8.81402 13.1626C8.70541 13.1051 8.61263 13.0217 8.54383 12.9198C8.47502 12.8179 8.43231 12.7007 8.41945 12.5785C8.40659 12.4562 8.42397 12.3327 8.47006 12.2188L9.97006 8.46875C10.0447 8.28401 10.1896 8.13647 10.373 8.05858C10.5563 7.9807 10.7631 7.97885 10.9479 8.05344C11.1326 8.12803 11.2802 8.27295 11.358 8.45633C11.4359 8.63971 11.4378 8.84651 11.3632 9.03125L10.2748 11.75H12.1666C12.2891 11.75 12.4097 11.78 12.5178 11.8374C12.626 11.8947 12.7185 11.9777 12.7873 12.0791ZM23.4166 8.62156V16.25C23.4166 16.8467 23.1796 17.419 22.7576 17.841C22.3357 18.2629 21.7634 18.5 21.1666 18.5C20.5699 18.5 19.9976 18.2629 19.5756 17.841C19.1537 17.419 18.9166 16.8467 18.9166 16.25V12.5C18.9166 12.3011 18.8376 12.1103 18.697 11.9697C18.5563 11.829 18.3655 11.75 18.1666 11.75H16.6666V20H18.1666C18.3655 20 18.5563 20.079 18.697 20.2197C18.8376 20.3603 18.9166 20.5511 18.9166 20.75C18.9166 20.9489 18.8376 21.1397 18.697 21.2803C18.5563 21.421 18.3655 21.5 18.1666 21.5H3.16663C2.96771 21.5 2.77695 21.421 2.6363 21.2803C2.49564 21.1397 2.41663 20.9489 2.41663 20.75C2.41663 20.5511 2.49564 20.3603 2.6363 20.2197C2.77695 20.079 2.96771 20 3.16663 20H4.66663V5.75C4.66663 5.15326 4.90368 4.58097 5.32564 4.15901C5.74759 3.73705 6.31989 3.5 6.91663 3.5H14.4166C15.0134 3.5 15.5857 3.73705 16.0076 4.15901C16.4296 4.58097 16.6666 5.15326 16.6666 5.75V10.25H18.1666C18.7634 10.25 19.3357 10.4871 19.7576 10.909C20.1796 11.331 20.4166 11.9033 20.4166 12.5V16.25C20.4166 16.4489 20.4956 16.6397 20.6363 16.7803C20.7769 16.921 20.9677 17 21.1666 17C21.3655 17 21.5563 16.921 21.697 16.7803C21.8376 16.6397 21.9166 16.4489 21.9166 16.25V8.62156C21.916 8.42356 21.8372 8.23383 21.6973 8.09375L19.886 6.28062C19.7453 6.13989 19.6662 5.94902 19.6662 5.75C19.6662 5.55098 19.7453 5.36011 19.886 5.21938C20.0267 5.07864 20.2176 4.99958 20.4166 4.99958C20.6157 4.99958 20.8065 5.07864 20.9473 5.21938L22.7604 7.03063C22.9694 7.23931 23.1351 7.48736 23.2477 7.76043C23.3603 8.0335 23.4178 8.32618 23.4166 8.62156ZM15.1666 20V5.75C15.1666 5.55109 15.0876 5.36032 14.947 5.21967C14.8063 5.07902 14.6155 5 14.4166 5H6.91663C6.71771 5 6.52695 5.07902 6.3863 5.21967C6.24564 5.36032 6.16663 5.55109 6.16663 5.75V20H15.1666Z" fill="white"/>
</g>
</svg>
