<svg width="20" height="20" viewBox="0 0 20 20" fill="none" xmlns="http://www.w3.org/2000/svg">
<g id="ion:construct-outline">
<path id="Vector" d="M17.0574 7.19175C16.8586 7.3893 16.5897 7.50018 16.3094 7.50018C16.0291 7.50018 15.7602 7.3893 15.5613 7.19175L14.6832 6.31323C14.4856 6.11451 14.3747 5.84564 14.3747 5.56538C14.3747 5.28512 14.4856 5.01625 14.6832 4.81753L16.6711 2.82964C16.6749 2.82582 16.6778 2.82112 16.6794 2.81595C16.681 2.81079 16.6813 2.80531 16.6803 2.8C16.6793 2.79469 16.677 2.7897 16.6736 2.78547C16.6702 2.78124 16.6659 2.7779 16.6609 2.77573C15.3781 2.22651 13.7145 2.50581 12.6582 3.55464C11.6473 4.55815 11.5899 6.06518 11.9602 7.38276C12.0128 7.56992 12.0127 7.76798 11.9598 7.95507C11.9069 8.14216 11.8034 8.31099 11.6606 8.44292L4.90275 14.7226C4.74145 14.867 4.61131 15.0428 4.52027 15.2393C4.42923 15.4357 4.37922 15.6487 4.37328 15.8651C4.36734 16.0815 4.40561 16.2969 4.48574 16.498C4.56587 16.6992 4.68618 16.8818 4.83932 17.0349C4.99245 17.188 5.17519 17.3082 5.37637 17.3882C5.57755 17.4682 5.79293 17.5064 6.00936 17.5003C6.22578 17.4943 6.4387 17.4441 6.63509 17.353C6.83149 17.2619 7.00723 17.1316 7.15157 16.9703L13.4856 10.2007C13.6161 10.0603 13.7824 9.95807 13.9666 9.90508C14.1509 9.85208 14.3461 9.85031 14.5313 9.89995C15.8383 10.2492 17.3238 10.1835 18.3231 9.19917C19.3969 8.14136 19.6285 6.27182 19.1082 5.2019C19.1059 5.19721 19.1024 5.19314 19.0982 5.19003C19.0939 5.18693 19.089 5.18487 19.0838 5.18403C19.0787 5.18319 19.0734 5.1836 19.0684 5.18521C19.0634 5.18682 19.0588 5.1896 19.0551 5.19331L17.0574 7.19175Z" stroke="white" stroke-width="1.25" stroke-miterlimit="10" stroke-linecap="round"/>
<path id="Vector_2" d="M8.75001 11.0935C8.0672 10.4295 7.75431 10.1205 7.53907 9.91034C7.43136 9.80333 7.36065 9.66471 7.33725 9.51469C7.31385 9.36467 7.33899 9.21109 7.409 9.07636C7.44591 9.01011 7.49193 8.94936 7.54571 8.89589L8.15821 8.29863C8.22159 8.23513 8.29615 8.18388 8.37814 8.14745C8.50756 8.09017 8.6512 8.07302 8.79047 8.09823C8.92974 8.12343 9.05825 8.18984 9.15939 8.28886C9.37228 8.4955 9.76212 8.8748 10.4645 9.55917M12.3856 11.3787C13.9852 12.867 15.9254 14.6314 16.6824 15.2619C16.7391 15.3086 16.7853 15.3666 16.8181 15.4322C16.851 15.4978 16.8697 15.5695 16.8732 15.6428C16.8767 15.7161 16.8647 15.7893 16.8382 15.8577C16.8117 15.9261 16.7711 15.9882 16.7192 16.04L15.4152 17.3435C15.3622 17.3954 15.2991 17.4359 15.2299 17.4626C15.1607 17.4893 15.0867 17.5017 15.0126 17.4989C14.9384 17.4961 14.8656 17.4783 14.7986 17.4465C14.7316 17.4147 14.6717 17.3695 14.6227 17.3139C13.977 16.5646 12.2363 14.6924 10.7449 13.1342" stroke="white" stroke-width="1.25" stroke-linecap="round" stroke-linejoin="round"/>
<path id="Vector_3" d="M0.677381 7.5586L1.82621 6.43594C1.84376 6.41869 1.86459 6.40513 1.88747 6.39607C1.91035 6.38702 1.93481 6.38264 1.95941 6.38321C2.009 6.38267 2.05683 6.4016 2.09262 6.43594C2.13422 6.47709 2.18465 6.50823 2.24008 6.52698C2.29552 6.54572 2.3545 6.5516 2.41254 6.54414C2.56215 6.52774 2.72191 6.48164 2.82543 6.38321C3.0598 6.15664 2.78871 5.71016 2.99496 5.42461C3.2308 5.11202 3.48903 4.81697 3.76762 4.5418C4.00199 4.31211 4.93324 3.43555 6.49808 2.80547C6.99852 2.60319 7.53331 2.49947 8.07308 2.5C8.95551 2.5 9.63558 2.89063 9.88012 3.11211C10.0269 3.25176 10.1612 3.40389 10.2817 3.5668C10.1641 3.52345 10.0439 3.48732 9.92191 3.4586C9.66529 3.40416 9.40209 3.38758 9.14066 3.40938C8.61996 3.45196 7.99183 3.69297 7.65629 3.95625C7.11332 4.38594 6.88012 4.96094 6.8434 5.70274C6.81683 6.2543 6.94965 6.56602 8.25355 7.87031C8.29812 7.92006 8.32164 7.98516 8.31916 8.0519C8.31668 8.11864 8.2884 8.18182 8.24027 8.22813L7.52855 8.93125C7.47894 8.9799 7.41241 9.00744 7.34293 9.00809C7.27345 9.00875 7.20642 8.98247 7.1559 8.93477C6.29887 8.07774 5.72426 7.64219 5.39808 7.44414C5.07191 7.2461 4.80941 7.19024 4.68324 7.17656C4.43544 7.15201 4.18613 7.20482 3.96957 7.32774C3.93157 7.34861 3.89683 7.37493 3.86644 7.40586C3.81573 7.45828 3.77589 7.52023 3.74925 7.58814C3.7226 7.65604 3.70966 7.72854 3.71119 7.80147C3.71272 7.87439 3.72867 7.9463 3.75813 8.01302C3.7876 8.07975 3.82998 8.13998 3.88285 8.19024L3.94965 8.25274C3.96699 8.26959 3.98077 8.28975 3.99018 8.31203C3.9996 8.3343 4.00445 8.35824 4.00445 8.38242C4.00445 8.40661 3.9996 8.43054 3.99018 8.45282C3.98077 8.47509 3.96699 8.49526 3.94965 8.51211L2.80199 9.63281C2.78461 9.65042 2.76385 9.66433 2.74096 9.67373C2.71807 9.68313 2.69353 9.68781 2.66879 9.6875C2.6192 9.68799 2.57139 9.66907 2.53558 9.63477L0.677381 7.8211C0.64375 7.78567 0.625 7.73869 0.625 7.68985C0.625 7.641 0.64375 7.59402 0.677381 7.5586Z" stroke="white" stroke-width="1.25" stroke-linecap="round" stroke-linejoin="round"/>
</g>
</svg>
