<svg width="25" height="25" viewBox="0 0 25 25" fill="none" xmlns="http://www.w3.org/2000/svg">
<g id="ion:document-outline">
<path id="Vector" d="M20 10.8711V20C20 20.5967 19.7629 21.169 19.341 21.591C18.919 22.0129 18.3467 22.25 17.75 22.25H7.25C6.65326 22.25 6.08097 22.0129 5.65901 21.591C5.23705 21.169 5 20.5967 5 20V5C5 4.40326 5.23705 3.83097 5.65901 3.40901C6.08097 2.98705 6.65326 2.75 7.25 2.75H11.8789C12.2766 2.75006 12.658 2.90804 12.9392 3.18922L19.5608 9.81078C19.842 10.092 19.9999 10.4734 20 10.8711Z" stroke="white" stroke-width="1.5" stroke-linejoin="round"/>
<path id="Vector_2" d="M12.5 3.125V8.75C12.5 9.14782 12.658 9.52936 12.9393 9.81066C13.2206 10.092 13.6022 10.25 14 10.25H19.625" stroke="white" stroke-width="1.5" stroke-linecap="round" stroke-linejoin="round"/>
</g>
</svg>
