<svg width="41" height="36" viewBox="0 0 41 36" fill="none" xmlns="http://www.w3.org/2000/svg">
<g id="fa6-solid:plug-circle-bolt" clip-path="url(#clip0_2_3833)">
<path id="Vector" d="M6.75 0C5.50547 0 4.5 1.00547 4.5 2.25V9H9V2.25C9 1.00547 7.99453 0 6.75 0ZM20.25 0C19.0055 0 18 1.00547 18 2.25V9H22.5V2.25C22.5 1.00547 21.4945 0 20.25 0ZM2.25 11.25C1.00547 11.25 0 12.2555 0 13.5C0 14.7445 1.00547 15.75 2.25 15.75V18C2.25 23.4422 6.11719 27.9844 11.25 29.025V33.75C11.25 34.9945 12.2555 36 13.5 36C14.7445 36 15.75 34.9945 15.75 33.75V29.025C16.6148 28.8492 17.4445 28.575 18.218 28.2164C18.0703 27.457 18 26.6766 18 25.875C18 20.2289 21.7828 15.4688 26.9508 13.9781C26.9859 13.8234 27 13.6617 27 13.5C27 12.2555 25.9945 11.25 24.75 11.25H2.25ZM30.375 36C33.0603 36 35.6357 34.9333 37.5345 33.0345C39.4333 31.1356 40.5 28.5603 40.5 25.875C40.5 23.1897 39.4333 20.6144 37.5345 18.7155C35.6357 16.8167 33.0603 15.75 30.375 15.75C27.6897 15.75 25.1144 16.8167 23.2155 18.7155C21.3167 20.6144 20.25 23.1897 20.25 25.875C20.25 28.5603 21.3167 31.1356 23.2155 33.0345C25.1144 34.9333 27.6897 36 30.375 36ZM33.743 20.1797C34.0453 20.4398 34.1227 20.8758 33.9258 21.2273L31.8094 25.0312H34.3125C34.6781 25.0312 35.0016 25.2633 35.1141 25.6078C35.2266 25.9523 35.107 26.332 34.8188 26.55L28.0688 31.6125C27.7523 31.8516 27.3094 31.8375 27.007 31.5703C26.7047 31.3031 26.6273 30.8742 26.8242 30.5227L28.9406 26.7188H26.4375C26.0719 26.7188 25.7484 26.4867 25.6359 26.1422C25.5234 25.7977 25.643 25.418 25.9312 25.2L32.6812 20.1375C32.9977 19.8984 33.4406 19.9125 33.743 20.1797Z" fill="url(#paint0_linear_2_3833)"/>
</g>
<defs>
<linearGradient id="paint0_linear_2_3833" x1="-0.323671" y1="-0.285715" x2="44.1133" y2="31.7072" gradientUnits="userSpaceOnUse">
<stop stop-color="#8BDFDA"/>
<stop offset="1" stop-color="#369C96"/>
</linearGradient>
<clipPath id="clip0_2_3833">
<rect width="40.5" height="36" fill="white"/>
</clipPath>
</defs>
</svg>
