<svg xmlns="http://www.w3.org/2000/svg" width="36" height="36" viewBox="0 0 36 36" fill="none">
<path d="M22.1674 2.32031L6.75 21.375H15.75L13.5345 33.5552C13.5302 33.5791 13.5313 33.6037 13.5376 33.6271C13.5439 33.6505 13.5553 33.6723 13.5709 33.6909C13.5865 33.7094 13.606 33.7244 13.628 33.7346C13.65 33.7448 13.674 33.7501 13.6983 33.75C13.7241 33.75 13.7496 33.7439 13.7726 33.7323C13.7957 33.7207 13.8157 33.7039 13.8312 33.6832L29.25 14.625H20.25L22.4761 2.44336C22.4791 2.41909 22.4769 2.39446 22.4696 2.37111C22.4624 2.34776 22.4502 2.32623 22.434 2.30793C22.4178 2.28964 22.3978 2.27502 22.3755 2.26503C22.3532 2.25504 22.329 2.24992 22.3045 2.25C22.2778 2.25011 22.2514 2.25653 22.2276 2.26875C22.2037 2.28097 22.1831 2.29863 22.1674 2.32031Z" stroke="#369C96" stroke-width="2.25" stroke-linecap="round" stroke-linejoin="round"/>
</svg>