<svg width="36" height="36" viewBox="0 0 36 36" fill="none" xmlns="http://www.w3.org/2000/svg">
<g id="icon-park-solid:folder-conversion">
<g id="Mask group">
<mask id="mask0_2_3872" style="mask-type:luminance" maskUnits="userSpaceOnUse" x="2" y="3" width="32" height="30">
<g id="Group">
<g id="Group_2">
<path id="Vector" d="M3.75 6C3.75 5.60218 3.90804 5.22064 4.18934 4.93934C4.47064 4.65804 4.85218 4.5 5.25 4.5H14.25L18 9H30.75C31.1478 9 31.5294 9.15804 31.8107 9.43934C32.092 9.72064 32.25 10.1022 32.25 10.5V30C32.25 30.3978 32.092 30.7794 31.8107 31.0607C31.5294 31.342 31.1478 31.5 30.75 31.5H5.25C4.85218 31.5 4.47064 31.342 4.18934 31.0607C3.90804 30.7794 3.75 30.3978 3.75 30V6Z" fill="white" stroke="white" stroke-width="3" stroke-linejoin="round"/>
<path id="Vector_2" d="M12.75 18H23.25L19.5 14.25M23.25 22.5H12.75L16.5 26.25" stroke="black" stroke-width="3" stroke-linecap="round" stroke-linejoin="round"/>
</g>
</g>
</mask>
<g mask="url(#mask0_2_3872)">
<path id="Vector_3" d="M0 0H36V36H0V0Z" fill="url(#paint0_linear_2_3872)"/>
</g>
</g>
</g>
<defs>
<linearGradient id="paint0_linear_2_3872" x1="-0.287707" y1="-0.285715" x2="42.2604" y2="26.9436" gradientUnits="userSpaceOnUse">
<stop stop-color="#8BDFDA"/>
<stop offset="1" stop-color="#369C96"/>
</linearGradient>
</defs>
</svg>
