<svg width="36" height="36" viewBox="0 0 36 36" fill="none" xmlns="http://www.w3.org/2000/svg">
<g id="ion:folder-open" clip-path="url(#clip0_2_3815)">
<g id="Vector" filter="url(#filter0_d_2_3815)">
<path d="M28.6875 6.75001H17.7265C17.3935 6.75107 17.0678 6.65318 16.7906 6.46876L14.8359 5.16165C14.1887 4.72881 13.4272 4.49848 12.6485 4.50001H7.3125C6.26855 4.50112 5.26768 4.91633 4.5295 5.65451C3.79132 6.39269 3.37611 7.39356 3.375 8.43751V10.125H32.625C32.625 7.95376 30.8587 6.75001 28.6875 6.75001ZM29.7949 31.5H6.20508C5.17191 31.4988 4.1806 31.0916 3.44493 30.3662C2.70926 29.6408 2.28818 28.6553 2.2725 27.6223L1.13765 16.039V16.0193C1.10049 15.555 1.15982 15.0881 1.31191 14.6479C1.464 14.2077 1.70556 13.8037 2.02138 13.4614C2.3372 13.1191 2.72046 12.8459 3.14703 12.6589C3.5736 12.4719 4.03425 12.3753 4.5 12.375H31.507C31.9727 12.3755 32.4332 12.4723 32.8596 12.6593C33.286 12.8464 33.669 13.1196 33.9847 13.4619C34.3004 13.8042 34.5418 14.2081 34.6938 14.6482C34.8458 15.0884 34.9051 15.5552 34.868 16.0193V16.039L33.7275 27.6223C33.7118 28.6553 33.2907 29.6408 32.5551 30.3662C31.8194 31.0916 30.8281 31.4988 29.7949 31.5Z" fill="url(#paint0_linear_2_3815)"/>
</g>
</g>
<defs>
<filter id="filter0_d_2_3815" x="-14.8731" y="-7.5" width="65.7518" height="59" filterUnits="userSpaceOnUse" color-interpolation-filters="sRGB">
<feFlood flood-opacity="0" result="BackgroundImageFix"/>
<feColorMatrix in="SourceAlpha" type="matrix" values="0 0 0 0 0 0 0 0 0 0 0 0 0 0 0 0 0 0 127 0" result="hardAlpha"/>
<feOffset dy="4"/>
<feGaussianBlur stdDeviation="8"/>
<feComposite in2="hardAlpha" operator="out"/>
<feColorMatrix type="matrix" values="0 0 0 0 0.689906 0 0 0 0 0.7425 0 0 0 0 0.739406 0 0 0 0.16 0"/>
<feBlend mode="normal" in2="BackgroundImageFix" result="effect1_dropShadow_2_3815"/>
<feBlend mode="normal" in="SourceGraphic" in2="effect1_dropShadow_2_3815" result="shape"/>
</filter>
<linearGradient id="paint0_linear_2_3815" x1="0.857152" y1="4.28571" x2="35.1429" y2="31.7143" gradientUnits="userSpaceOnUse">
<stop stop-color="#8BDFDA"/>
<stop offset="1" stop-color="#369C96"/>
</linearGradient>
<clipPath id="clip0_2_3815">
<rect width="36" height="36" fill="white"/>
</clipPath>
</defs>
</svg>
