<svg width="20" height="21" viewBox="0 0 20 21" fill="none" xmlns="http://www.w3.org/2000/svg">
<g id="ion:log-out-outline">
<path id="Vector" d="M11.875 13.625V15.1875C11.875 15.6019 11.7104 15.9993 11.4174 16.2924C11.1243 16.5854 10.7269 16.75 10.3125 16.75H4.0625C3.6481 16.75 3.25067 16.5854 2.95765 16.2924C2.66462 15.9993 2.5 15.6019 2.5 15.1875V5.8125C2.5 5.3981 2.66462 5.00067 2.95765 4.70765C3.25067 4.41462 3.6481 4.25 4.0625 4.25H10C10.8629 4.25 11.875 4.94961 11.875 5.8125V7.375M14.375 13.625L17.5 10.5L14.375 7.375M6.875 10.5H16.875" stroke="white" stroke-width="1.25" stroke-linecap="round" stroke-linejoin="round"/>
</g>
</svg>
