<svg width="36" height="36" viewBox="0 0 36 36" fill="none" xmlns="http://www.w3.org/2000/svg">
<path d="M13.5 12.375V9.5625C13.5 8.81658 13.7963 8.10121 14.3238 7.57376C14.8512 7.04632 15.5666 6.75 16.3125 6.75H27.5625C28.3084 6.75 29.0238 7.04632 29.5512 7.57376C30.0787 8.10121 30.375 8.81658 30.375 9.5625V26.4375C30.375 27.1834 30.0787 27.8988 29.5512 28.4262C29.0238 28.9537 28.3084 29.25 27.5625 29.25H16.875C15.3218 29.25 13.5 27.9907 13.5 26.4375V23.625" stroke="#369C96" stroke-width="2.25" stroke-linecap="round" stroke-linejoin="round"/>
<path d="M20.25 23.625L25.875 18L20.25 12.375M5.625 18H24.75" stroke="#369C96" stroke-width="2.25" stroke-linecap="round" stroke-linejoin="round"/>
</svg>
