<svg width="36" height="36" viewBox="0 0 36 36" fill="none" xmlns="http://www.w3.org/2000/svg">
<g id="ion:person">
<path id="Vector" d="M23.3888 4.54078C22.0205 3.06352 20.1094 2.25 18 2.25C15.8794 2.25 13.962 3.05859 12.6 4.52672C11.2233 6.01102 10.5525 8.02828 10.71 10.2066C11.0222 14.5041 14.2925 18 18 18C21.7076 18 24.9722 14.5048 25.2893 10.208C25.4489 8.04937 24.7739 6.03633 23.3888 4.54078ZM30.375 33.75H5.62504C5.30108 33.7542 4.98026 33.6862 4.68592 33.5508C4.39157 33.4154 4.13111 33.2161 3.92347 32.9674C3.46644 32.4211 3.28222 31.6751 3.41863 30.9206C4.01207 27.6286 5.8641 24.8632 8.77504 22.9219C11.3611 21.1985 14.637 20.25 18 20.25C21.3631 20.25 24.6389 21.1992 27.225 22.9219C30.136 24.8625 31.988 27.6279 32.5814 30.9199C32.7178 31.6744 32.5336 32.4204 32.0766 32.9667C31.869 33.2155 31.6086 33.415 31.3142 33.5505C31.0199 33.686 30.699 33.7541 30.375 33.75Z" fill="url(#paint0_linear_2_3788)"/>
</g>
<defs>
<linearGradient id="paint0_linear_2_3788" x1="3.14087" y1="2" x2="39.1532" y2="23.4009" gradientUnits="userSpaceOnUse">
<stop stop-color="#8BDFDA"/>
<stop offset="1" stop-color="#369C96"/>
</linearGradient>
</defs>
</svg>
