<svg width="36" height="36" viewBox="0 0 36 36" fill="none" xmlns="http://www.w3.org/2000/svg">
<g id="ion:pie-chart" clip-path="url(#clip0_2_3800)">
<g id="Vector" filter="url(#filter0_d_2_3800)">
<path d="M4.6477 25.1016C4.43054 25.1017 4.21799 25.0389 4.03571 24.9209C3.85342 24.8029 3.7092 24.6346 3.62043 24.4364C2.54639 22.0377 2.08969 19.4083 2.29195 16.7879C2.49422 14.1675 3.34902 11.6393 4.77846 9.43384C6.20789 7.22835 8.16652 5.41563 10.4759 4.16087C12.7852 2.90611 15.3718 2.2492 18 2.25C18.2984 2.25 18.5846 2.36853 18.7955 2.57951C19.0065 2.79048 19.125 3.07663 19.125 3.375V18C19.1251 18.2172 19.0622 18.4298 18.9441 18.6121C18.8259 18.7944 18.6575 18.9386 18.4592 19.0273L5.10684 25.0003C4.96268 25.0662 4.80619 25.1007 4.6477 25.1016Z" fill="url(#paint0_linear_2_3800)"/>
</g>
<g id="Vector_2" filter="url(#filter1_d_2_3800)">
<path d="M22.0493 4.79394C21.9677 4.77739 21.8835 4.77916 21.8027 4.79911C21.7219 4.81905 21.6465 4.85668 21.582 4.90928C21.5175 4.96188 21.4655 5.02813 21.4297 5.10327C21.3939 5.17841 21.3752 5.26055 21.375 5.34378V18C21.3744 18.6514 21.1856 19.2887 20.8314 19.8354C20.4771 20.382 19.9724 20.8146 19.3781 21.0811L7.2513 26.5078C7.17613 26.5414 7.10924 26.591 7.05536 26.6533C7.00147 26.7155 6.9619 26.7888 6.93944 26.868C6.91698 26.9472 6.91217 27.0303 6.92535 27.1116C6.93854 27.1928 6.9694 27.2702 7.01575 27.3382C7.94382 28.7032 9.09581 29.9015 10.4231 30.8827C12.9378 32.7534 15.9908 33.7594 19.125 33.75C27.1891 33.75 33.75 27.1892 33.75 19.125C33.75 12.0621 28.717 6.15237 22.0493 4.79394Z" fill="url(#paint1_linear_2_3800)"/>
</g>
</g>
<defs>
<filter id="filter0_d_2_3800" x="-13.7548" y="-9.75" width="48.8798" height="54.8516" filterUnits="userSpaceOnUse" color-interpolation-filters="sRGB">
<feFlood flood-opacity="0" result="BackgroundImageFix"/>
<feColorMatrix in="SourceAlpha" type="matrix" values="0 0 0 0 0 0 0 0 0 0 0 0 0 0 0 0 0 0 127 0" result="hardAlpha"/>
<feOffset dy="4"/>
<feGaussianBlur stdDeviation="8"/>
<feComposite in2="hardAlpha" operator="out"/>
<feColorMatrix type="matrix" values="0 0 0 0 0.689906 0 0 0 0 0.7425 0 0 0 0 0.739406 0 0 0 0.16 0"/>
<feBlend mode="normal" in2="BackgroundImageFix" result="effect1_dropShadow_2_3800"/>
<feBlend mode="normal" in="SourceGraphic" in2="effect1_dropShadow_2_3800" result="shape"/>
</filter>
<filter id="filter1_d_2_3800" x="-9.08191" y="-7.21729" width="58.8319" height="60.9673" filterUnits="userSpaceOnUse" color-interpolation-filters="sRGB">
<feFlood flood-opacity="0" result="BackgroundImageFix"/>
<feColorMatrix in="SourceAlpha" type="matrix" values="0 0 0 0 0 0 0 0 0 0 0 0 0 0 0 0 0 0 127 0" result="hardAlpha"/>
<feOffset dy="4"/>
<feGaussianBlur stdDeviation="8"/>
<feComposite in2="hardAlpha" operator="out"/>
<feColorMatrix type="matrix" values="0 0 0 0 0.689906 0 0 0 0 0.7425 0 0 0 0 0.739406 0 0 0 0.16 0"/>
<feBlend mode="normal" in2="BackgroundImageFix" result="effect1_dropShadow_2_3800"/>
<feBlend mode="normal" in="SourceGraphic" in2="effect1_dropShadow_2_3800" result="shape"/>
</filter>
<linearGradient id="paint0_linear_2_3800" x1="2.11034" y1="2.06864" x2="25.0948" y2="12.934" gradientUnits="userSpaceOnUse">
<stop stop-color="#8BDFDA"/>
<stop offset="1" stop-color="#369C96"/>
</linearGradient>
<linearGradient id="paint1_linear_2_3800" x1="6.70365" y1="4.55281" x2="39.7808" y2="24.1605" gradientUnits="userSpaceOnUse">
<stop stop-color="#8BDFDA"/>
<stop offset="1" stop-color="#369C96"/>
</linearGradient>
<clipPath id="clip0_2_3800">
<rect width="36" height="36" fill="white"/>
</clipPath>
</defs>
</svg>
